<mxfile host="Electron" modified="2024-05-17T01:24:10.557Z" agent="Mozilla/5.0 (Macintosh; Intel Mac OS X 10_15_7) AppleWebKit/537.36 (KHTML, like Gecko) draw.io/24.4.0 Chrome/120.0.6099.109 Electron/28.1.0 Safari/537.36" etag="i-zJK509IvUHFZ_MHgsR" version="24.4.0" type="device">
  <diagram name="Page-1" id="4ncEyYTzj3kkVNM8Jb0x">
    <mxGraphModel dx="1272" dy="899" grid="0" gridSize="10" guides="1" tooltips="1" connect="1" arrows="1" fold="1" page="1" pageScale="1" pageWidth="1169" pageHeight="827" math="0" shadow="0">
      <root>
        <mxCell id="0" />
        <mxCell id="1" parent="0" />
        <mxCell id="a9FY78EAC9pJa_BRcn6A-2" value="&lt;div&gt;&lt;div&gt;&lt;b&gt;PC&lt;/b&gt;&lt;/div&gt;&lt;/div&gt;" style="rounded=0;whiteSpace=wrap;html=1;fillColor=#f8cecc;strokeColor=#b85450;" parent="1" vertex="1">
          <mxGeometry x="800" y="241" width="80" height="239" as="geometry" />
        </mxCell>
        <mxCell id="SsxkmP4woy26UVyCUMX2-43" style="edgeStyle=orthogonalEdgeStyle;rounded=0;orthogonalLoop=1;jettySize=auto;html=1;entryX=0;entryY=0.5;entryDx=0;entryDy=0;dashed=1;" parent="1" source="SsxkmP4woy26UVyCUMX2-3" target="SsxkmP4woy26UVyCUMX2-5" edge="1">
          <mxGeometry relative="1" as="geometry" />
        </mxCell>
        <mxCell id="SsxkmP4woy26UVyCUMX2-49" value="BLE (Eddystone-UID)" style="edgeLabel;html=1;align=center;verticalAlign=middle;resizable=0;points=[];" parent="SsxkmP4woy26UVyCUMX2-43" vertex="1" connectable="0">
          <mxGeometry x="-0.2478" y="3" relative="1" as="geometry">
            <mxPoint y="-5" as="offset" />
          </mxGeometry>
        </mxCell>
        <mxCell id="SsxkmP4woy26UVyCUMX2-3" value="&lt;b&gt;Thingy52&lt;/b&gt;&lt;div&gt;&lt;b&gt;(Onboard PB)&lt;/b&gt;&lt;/div&gt;" style="rounded=0;whiteSpace=wrap;html=1;fillColor=#d5e8d4;strokeColor=#82b366;" parent="1" vertex="1">
          <mxGeometry x="279" y="330.5" width="120" height="60" as="geometry" />
        </mxCell>
        <mxCell id="SsxkmP4woy26UVyCUMX2-40" style="edgeStyle=orthogonalEdgeStyle;rounded=0;orthogonalLoop=1;jettySize=auto;html=1;entryX=0;entryY=0.25;entryDx=0;entryDy=0;dashed=1;" parent="1" source="SsxkmP4woy26UVyCUMX2-4" target="SsxkmP4woy26UVyCUMX2-38" edge="1">
          <mxGeometry relative="1" as="geometry" />
        </mxCell>
        <mxCell id="SsxkmP4woy26UVyCUMX2-47" value="WiFi" style="edgeLabel;html=1;align=center;verticalAlign=middle;resizable=0;points=[];" parent="SsxkmP4woy26UVyCUMX2-40" vertex="1" connectable="0">
          <mxGeometry x="-0.1221" y="-1" relative="1" as="geometry">
            <mxPoint x="-18" y="-25" as="offset" />
          </mxGeometry>
        </mxCell>
        <mxCell id="SsxkmP4woy26UVyCUMX2-4" value="&lt;b&gt;M5Stack Core2 #1&lt;/b&gt;" style="rounded=0;whiteSpace=wrap;html=1;fillColor=#d5e8d4;strokeColor=#82b366;" parent="1" vertex="1">
          <mxGeometry x="279" y="530" width="120" height="60" as="geometry" />
        </mxCell>
        <mxCell id="SsxkmP4woy26UVyCUMX2-5" value="&lt;b&gt;nRF52840 DK&lt;/b&gt;" style="rounded=0;whiteSpace=wrap;html=1;fillColor=#f5f5f5;strokeColor=#666666;fontColor=#333333;" parent="1" vertex="1">
          <mxGeometry x="560" y="330.5" width="120" height="60" as="geometry" />
        </mxCell>
        <mxCell id="SsxkmP4woy26UVyCUMX2-41" style="edgeStyle=orthogonalEdgeStyle;rounded=0;orthogonalLoop=1;jettySize=auto;html=1;entryX=0;entryY=0.75;entryDx=0;entryDy=0;dashed=1;" parent="1" source="SsxkmP4woy26UVyCUMX2-7" target="SsxkmP4woy26UVyCUMX2-38" edge="1">
          <mxGeometry relative="1" as="geometry" />
        </mxCell>
        <mxCell id="SsxkmP4woy26UVyCUMX2-48" value="WiFi" style="edgeLabel;html=1;align=center;verticalAlign=middle;resizable=0;points=[];" parent="SsxkmP4woy26UVyCUMX2-41" vertex="1" connectable="0">
          <mxGeometry x="0.4382" y="-2" relative="1" as="geometry">
            <mxPoint x="-28" y="35" as="offset" />
          </mxGeometry>
        </mxCell>
        <mxCell id="SsxkmP4woy26UVyCUMX2-7" value="&lt;b&gt;M5Stack Core2 #2&lt;/b&gt;" style="rounded=0;whiteSpace=wrap;html=1;fillColor=#d5e8d4;strokeColor=#82b366;" parent="1" vertex="1">
          <mxGeometry x="279" y="650" width="120" height="60" as="geometry" />
        </mxCell>
        <mxCell id="SsxkmP4woy26UVyCUMX2-8" value="&lt;b&gt;Minecraft&lt;/b&gt;" style="rounded=0;whiteSpace=wrap;html=1;fillColor=#fff2cc;strokeColor=#d6b656;" parent="1" vertex="1">
          <mxGeometry x="960" y="260" width="120" height="60" as="geometry" />
        </mxCell>
        <mxCell id="SsxkmP4woy26UVyCUMX2-9" value="&lt;b&gt;Graphical Display&lt;/b&gt;" style="rounded=0;whiteSpace=wrap;html=1;fillColor=#fff2cc;strokeColor=#d6b656;" parent="1" vertex="1">
          <mxGeometry x="960" y="400" width="120" height="60" as="geometry" />
        </mxCell>
        <mxCell id="SsxkmP4woy26UVyCUMX2-10" style="edgeStyle=orthogonalEdgeStyle;rounded=0;orthogonalLoop=1;jettySize=auto;html=1;entryX=1.003;entryY=0.204;entryDx=0;entryDy=0;entryPerimeter=0;endArrow=none;endFill=0;startArrow=classicThin;startFill=1;strokeColor=#FF0000;" parent="1" source="SsxkmP4woy26UVyCUMX2-8" target="a9FY78EAC9pJa_BRcn6A-2" edge="1">
          <mxGeometry relative="1" as="geometry" />
        </mxCell>
        <mxCell id="SsxkmP4woy26UVyCUMX2-58" value="HID" style="edgeLabel;html=1;align=center;verticalAlign=middle;resizable=0;points=[];" parent="SsxkmP4woy26UVyCUMX2-10" vertex="1" connectable="0">
          <mxGeometry x="0.1898" relative="1" as="geometry">
            <mxPoint x="1" y="-10" as="offset" />
          </mxGeometry>
        </mxCell>
        <mxCell id="SsxkmP4woy26UVyCUMX2-11" style="edgeStyle=orthogonalEdgeStyle;rounded=0;orthogonalLoop=1;jettySize=auto;html=1;entryX=1.022;entryY=0.788;entryDx=0;entryDy=0;entryPerimeter=0;startArrow=classic;startFill=1;endArrow=none;endFill=0;strokeColor=#FF0000;" parent="1" source="SsxkmP4woy26UVyCUMX2-9" target="a9FY78EAC9pJa_BRcn6A-2" edge="1">
          <mxGeometry relative="1" as="geometry" />
        </mxCell>
        <mxCell id="SsxkmP4woy26UVyCUMX2-57" value="Serial" style="edgeLabel;html=1;align=center;verticalAlign=middle;resizable=0;points=[];" parent="SsxkmP4woy26UVyCUMX2-11" vertex="1" connectable="0">
          <mxGeometry x="0.0563" relative="1" as="geometry">
            <mxPoint x="-1" y="-9" as="offset" />
          </mxGeometry>
        </mxCell>
        <mxCell id="SsxkmP4woy26UVyCUMX2-12" value="" style="endArrow=classic;html=1;rounded=0;entryX=-0.011;entryY=0.416;entryDx=0;entryDy=0;entryPerimeter=0;" parent="1" target="a9FY78EAC9pJa_BRcn6A-2" edge="1">
          <mxGeometry width="50" height="50" relative="1" as="geometry">
            <mxPoint x="680" y="340" as="sourcePoint" />
            <mxPoint x="730" y="290" as="targetPoint" />
          </mxGeometry>
        </mxCell>
        <mxCell id="SsxkmP4woy26UVyCUMX2-30" value="Serial" style="edgeLabel;html=1;align=center;verticalAlign=middle;resizable=0;points=[];" parent="SsxkmP4woy26UVyCUMX2-12" vertex="1" connectable="0">
          <mxGeometry x="-0.2036" y="1" relative="1" as="geometry">
            <mxPoint x="2" y="-9" as="offset" />
          </mxGeometry>
        </mxCell>
        <mxCell id="SsxkmP4woy26UVyCUMX2-13" value="" style="endArrow=classic;html=1;rounded=0;exitX=-0.005;exitY=0.54;exitDx=0;exitDy=0;exitPerimeter=0;entryX=1.001;entryY=0.652;entryDx=0;entryDy=0;entryPerimeter=0;" parent="1" edge="1">
          <mxGeometry width="50" height="50" relative="1" as="geometry">
            <mxPoint x="799.6000000000001" y="380.06000000000006" as="sourcePoint" />
            <mxPoint x="680.12" y="379.62" as="targetPoint" />
          </mxGeometry>
        </mxCell>
        <mxCell id="SsxkmP4woy26UVyCUMX2-31" value="Serial" style="edgeLabel;html=1;align=center;verticalAlign=middle;resizable=0;points=[];" parent="SsxkmP4woy26UVyCUMX2-13" vertex="1" connectable="0">
          <mxGeometry x="0.237" y="2" relative="1" as="geometry">
            <mxPoint x="4" y="-10" as="offset" />
          </mxGeometry>
        </mxCell>
        <mxCell id="SsxkmP4woy26UVyCUMX2-15" style="edgeStyle=orthogonalEdgeStyle;rounded=0;orthogonalLoop=1;jettySize=auto;html=1;entryX=0.5;entryY=0;entryDx=0;entryDy=0;" parent="1" source="SsxkmP4woy26UVyCUMX2-14" target="a9FY78EAC9pJa_BRcn6A-2" edge="1">
          <mxGeometry relative="1" as="geometry" />
        </mxCell>
        <mxCell id="SsxkmP4woy26UVyCUMX2-29" value="Serial" style="edgeLabel;html=1;align=center;verticalAlign=middle;resizable=0;points=[];" parent="SsxkmP4woy26UVyCUMX2-15" vertex="1" connectable="0">
          <mxGeometry x="-0.1014" relative="1" as="geometry">
            <mxPoint x="-9" y="-10" as="offset" />
          </mxGeometry>
        </mxCell>
        <mxCell id="SsxkmP4woy26UVyCUMX2-14" value="&lt;b&gt;Webcam&lt;/b&gt;" style="rounded=0;whiteSpace=wrap;html=1;fillColor=#dae8fc;strokeColor=#6c8ebf;" parent="1" vertex="1">
          <mxGeometry x="560" y="130" width="120" height="60" as="geometry" />
        </mxCell>
        <mxCell id="SsxkmP4woy26UVyCUMX2-25" style="edgeStyle=orthogonalEdgeStyle;rounded=0;orthogonalLoop=1;jettySize=auto;html=1;entryX=0;entryY=0.5;entryDx=0;entryDy=0;" parent="1" source="SsxkmP4woy26UVyCUMX2-23" target="SsxkmP4woy26UVyCUMX2-4" edge="1">
          <mxGeometry relative="1" as="geometry" />
        </mxCell>
        <mxCell id="SsxkmP4woy26UVyCUMX2-23" value="&lt;b&gt;Ultrasonic Sensor&amp;nbsp;&lt;/b&gt;&lt;div&gt;&lt;b&gt;X Axis&lt;/b&gt;&lt;/div&gt;" style="rounded=0;whiteSpace=wrap;html=1;fillColor=#ffe6cc;strokeColor=#d79b00;" parent="1" vertex="1">
          <mxGeometry x="80" y="530.5" width="120" height="60" as="geometry" />
        </mxCell>
        <mxCell id="SsxkmP4woy26UVyCUMX2-26" style="edgeStyle=orthogonalEdgeStyle;rounded=0;orthogonalLoop=1;jettySize=auto;html=1;entryX=0;entryY=0.5;entryDx=0;entryDy=0;" parent="1" source="SsxkmP4woy26UVyCUMX2-24" target="SsxkmP4woy26UVyCUMX2-7" edge="1">
          <mxGeometry relative="1" as="geometry" />
        </mxCell>
        <mxCell id="SsxkmP4woy26UVyCUMX2-24" value="&lt;b&gt;Ultrasonic Sensor&amp;nbsp;&lt;/b&gt;&lt;div&gt;&lt;b&gt;Y Axis&lt;/b&gt;&lt;/div&gt;" style="rounded=0;whiteSpace=wrap;html=1;fillColor=#ffe6cc;strokeColor=#d79b00;" parent="1" vertex="1">
          <mxGeometry x="80" y="650" width="120" height="60" as="geometry" />
        </mxCell>
        <mxCell id="SsxkmP4woy26UVyCUMX2-42" style="edgeStyle=orthogonalEdgeStyle;rounded=0;orthogonalLoop=1;jettySize=auto;html=1;dashed=1;" parent="1" source="SsxkmP4woy26UVyCUMX2-38" target="a9FY78EAC9pJa_BRcn6A-2" edge="1">
          <mxGeometry relative="1" as="geometry" />
        </mxCell>
        <mxCell id="SsxkmP4woy26UVyCUMX2-46" value="WiFi" style="edgeLabel;html=1;align=center;verticalAlign=middle;resizable=0;points=[];" parent="SsxkmP4woy26UVyCUMX2-42" vertex="1" connectable="0">
          <mxGeometry x="-0.5039" y="-1" relative="1" as="geometry">
            <mxPoint y="-7" as="offset" />
          </mxGeometry>
        </mxCell>
        <mxCell id="SsxkmP4woy26UVyCUMX2-38" value="&lt;b&gt;MQTT Server&lt;/b&gt;" style="rounded=0;whiteSpace=wrap;html=1;fillColor=#f5f5f5;strokeColor=#666666;fontColor=#333333;" parent="1" vertex="1">
          <mxGeometry x="480" y="590.5" width="120" height="60" as="geometry" />
        </mxCell>
        <mxCell id="SsxkmP4woy26UVyCUMX2-50" value="" style="endArrow=none;dashed=1;html=1;dashPattern=1 3;strokeWidth=2;rounded=0;" parent="1" edge="1">
          <mxGeometry width="50" height="50" relative="1" as="geometry">
            <mxPoint x="90" y="174.63" as="sourcePoint" />
            <mxPoint x="130" y="174.63" as="targetPoint" />
          </mxGeometry>
        </mxCell>
        <mxCell id="SsxkmP4woy26UVyCUMX2-51" value="" style="endArrow=none;html=1;rounded=0;" parent="1" edge="1">
          <mxGeometry width="50" height="50" relative="1" as="geometry">
            <mxPoint x="90" y="194.63" as="sourcePoint" />
            <mxPoint x="130" y="194.63" as="targetPoint" />
          </mxGeometry>
        </mxCell>
        <mxCell id="SsxkmP4woy26UVyCUMX2-52" value="" style="endArrow=none;html=1;rounded=0;strokeColor=#FF0000;" parent="1" edge="1">
          <mxGeometry width="50" height="50" relative="1" as="geometry">
            <mxPoint x="90" y="214.87" as="sourcePoint" />
            <mxPoint x="130" y="214.87" as="targetPoint" />
          </mxGeometry>
        </mxCell>
        <mxCell id="SsxkmP4woy26UVyCUMX2-53" value="Wireless&amp;nbsp;" style="text;html=1;align=center;verticalAlign=middle;whiteSpace=wrap;rounded=0;" parent="1" vertex="1">
          <mxGeometry x="140" y="160" width="60" height="30" as="geometry" />
        </mxCell>
        <mxCell id="SsxkmP4woy26UVyCUMX2-54" value="Wired" style="text;html=1;align=center;verticalAlign=middle;whiteSpace=wrap;rounded=0;" parent="1" vertex="1">
          <mxGeometry x="130" y="180" width="60" height="30" as="geometry" />
        </mxCell>
        <mxCell id="SsxkmP4woy26UVyCUMX2-55" value="Internal" style="text;html=1;align=center;verticalAlign=middle;whiteSpace=wrap;rounded=0;" parent="1" vertex="1">
          <mxGeometry x="130" y="200" width="60" height="30" as="geometry" />
        </mxCell>
        <mxCell id="SsxkmP4woy26UVyCUMX2-56" value="&lt;font style=&quot;font-size: 14px;&quot;&gt;&lt;b&gt;Signal Key&lt;/b&gt;&lt;/font&gt;" style="text;html=1;align=center;verticalAlign=middle;whiteSpace=wrap;rounded=0;" parent="1" vertex="1">
          <mxGeometry x="80" y="130" width="105" height="30" as="geometry" />
        </mxCell>
      </root>
    </mxGraphModel>
  </diagram>
</mxfile>
